<svg width="33" height="33" viewBox="0 0 33 33" fill="none" xmlns="http://www.w3.org/2000/svg">
    <path
        d="M30.1506 22.7708C29.96 22.2498 29.5947 21.9731 29.1812 21.7422C29.1033 21.6965 29.0308 21.6589 28.9717 21.6321C28.8482 21.5676 28.7219 21.5059 28.5957 21.4414C27.304 20.7566 26.2942 19.8918 25.596 18.8687C25.3596 18.5222 25.1958 18.2107 25.0803 17.9556C25.0212 17.7837 25.0239 17.687 25.0669 17.5984C25.0991 17.5313 25.1851 17.4614 25.2334 17.4265C25.4563 17.2788 25.6846 17.1311 25.8403 17.0317C26.117 16.8518 26.3372 16.7095 26.4768 16.6128C27.0086 16.2422 27.3792 15.8474 27.6101 15.407C27.9378 14.7866 27.978 14.0776 27.7256 13.4116C27.3765 12.4878 26.501 11.9131 25.4429 11.9131C25.2227 11.9131 24.9998 11.9373 24.7795 11.9856C24.7205 11.999 24.6641 12.0125 24.6077 12.0259C24.6184 11.3975 24.6023 10.7261 24.5459 10.0708C24.3472 7.76123 23.5388 6.55005 22.6956 5.58594C22.3438 5.18311 21.7315 4.59497 20.813 4.0686C19.532 3.33276 18.0818 2.96216 16.5 2.96216C14.9236 2.96216 13.4734 3.33276 12.1924 4.06592C11.2686 4.59229 10.6563 5.18311 10.3071 5.58325C9.46387 6.54736 8.65553 7.75855 8.45679 10.0681C8.4004 10.7234 8.38697 11.3948 8.39503 12.0232C8.33863 12.0098 8.27955 11.9963 8.22315 11.9829C8.00294 11.9346 7.77735 11.9104 7.55982 11.9104C6.50172 11.9104 5.62623 12.4851 5.27711 13.4089C5.02467 14.075 5.06495 14.7839 5.39259 15.4043C5.62354 15.8447 5.99683 16.2395 6.52589 16.6101C6.66822 16.7095 6.88575 16.8518 7.16236 17.0291C7.31275 17.1257 7.53028 17.2681 7.74512 17.4104C7.77735 17.4319 7.89283 17.5178 7.93311 17.5984C7.97877 17.6897 7.97877 17.7891 7.91163 17.9717C7.79884 18.2214 7.63502 18.5276 7.40406 18.866C6.71925 19.8677 5.73902 20.7163 4.49024 21.3931C3.82691 21.7449 3.13941 21.9785 2.84937 22.7681C2.62916 23.3643 2.77418 24.0437 3.33009 24.6157C3.5127 24.8118 3.74366 24.9863 4.0337 25.1475C4.71583 25.5234 5.29591 25.7087 5.75245 25.835C5.83302 25.8591 6.01832 25.9182 6.09888 25.9907C6.30299 26.168 6.27345 26.4365 6.54469 26.8286C6.7085 27.073 6.89649 27.2395 7.05225 27.3469C7.6189 27.739 8.25806 27.7632 8.93482 27.79C9.54444 27.8142 10.2373 27.8411 11.0269 28.1016C11.3545 28.209 11.6956 28.4185 12.0877 28.6602C13.033 29.2429 14.3301 30.0378 16.4973 30.0378C18.6672 30.0378 19.9697 29.2375 20.9231 28.6548C21.3152 28.4158 21.6536 28.2063 21.9705 28.1016C22.76 27.8411 23.4529 27.8142 24.0625 27.79C24.7393 27.7632 25.3757 27.739 25.9451 27.3469C26.1223 27.2234 26.3479 27.022 26.5252 26.7158C26.7185 26.3855 26.7158 26.1519 26.8984 25.9934C26.9736 25.929 27.1375 25.8726 27.2261 25.8457C27.6853 25.7195 28.2734 25.5342 28.969 25.1501C29.2778 24.981 29.5169 24.7957 29.7075 24.5835C29.7102 24.5808 29.7129 24.5781 29.7156 24.5754C30.2339 24.0115 30.3655 23.3535 30.1506 22.7708ZM28.2251 23.8047C27.0488 24.4546 26.2673 24.3848 25.6604 24.7742C25.1448 25.1072 25.4482 25.8242 25.075 26.082C24.613 26.4016 23.2515 26.0605 21.4924 26.6406C20.0422 27.1213 19.1157 28.499 16.5027 28.499C13.8843 28.499 12.9846 27.1267 11.5129 26.6406C9.75391 26.0605 8.38966 26.4016 7.93043 26.082C7.55714 25.8242 7.8606 25.1072 7.34498 24.7742C6.73804 24.3821 5.95655 24.4519 4.78028 23.8047C4.03101 23.3911 4.45533 23.136 4.70509 23.0151C8.96436 20.9553 9.64112 17.7703 9.67335 17.5313C9.71094 17.2466 9.75123 17.021 9.43702 16.7283C9.13355 16.4463 7.78272 15.6111 7.40943 15.3506C6.78907 14.9182 6.51783 14.4858 6.71925 13.9541C6.85889 13.5862 7.20264 13.4492 7.56519 13.4492C7.67799 13.4492 7.79346 13.4626 7.90357 13.4868C8.58302 13.6345 9.24366 13.9756 9.62501 14.0669C9.67872 14.0803 9.72437 14.0857 9.76466 14.0857C9.96876 14.0857 10.0386 13.9836 10.0252 13.75C9.98218 13.0061 9.87476 11.5559 9.99293 10.1997C10.1541 8.33594 10.7556 7.41211 11.47 6.59302C11.8137 6.20093 13.4251 4.49829 16.5054 4.49829C19.5938 4.49829 21.197 6.20093 21.5408 6.59302C22.2551 7.40942 22.8567 8.33325 23.0178 10.1997C23.136 11.5559 23.0339 13.0061 22.9856 13.75C22.9695 13.9944 23.0447 14.0857 23.2461 14.0857C23.2864 14.0857 23.3347 14.0803 23.3857 14.0669C23.7671 13.9756 24.4277 13.6345 25.1072 13.4868C25.2173 13.4626 25.3328 13.4492 25.4456 13.4492C25.8081 13.4492 26.1519 13.5889 26.2915 13.9541C26.4929 14.4858 26.219 14.9182 25.6013 15.3506C25.228 15.6111 23.8772 16.4463 23.5737 16.7283C23.2595 17.0183 23.2998 17.2439 23.3374 17.5313C23.3669 17.7703 24.0464 20.9553 28.3057 23.0151C28.5474 23.136 28.9744 23.3911 28.2251 23.8047Z"
        fill="white" />
</svg>