<svg width="33" height="33" viewBox="0 0 33 33" fill="none" xmlns="http://www.w3.org/2000/svg">
    <path
        d="M30.25 8.14633C29.2387 8.59445 28.1523 8.89723 27.0102 9.03409C28.1753 8.33648 29.0691 7.2295 29.4906 5.91179C28.4006 6.55853 27.1931 7.02845 25.9081 7.28037C24.8786 6.1855 23.4132 5.5 21.7902 5.5C18.6752 5.5 16.1488 8.02642 16.1488 11.1439C16.1488 11.5847 16.1996 12.0135 16.2941 12.4277C11.6034 12.1915 7.44799 9.94486 4.6648 6.53189C4.18035 7.36757 3.90179 8.33648 3.90179 9.36836C3.90179 11.3256 4.89855 13.0538 6.41126 14.0651C5.48595 14.0349 4.61636 13.7817 3.85576 13.359V13.4317C3.85576 16.1652 5.79963 18.4458 8.38177 18.9642C7.90701 19.0926 7.40923 19.1604 6.89571 19.1604C6.53237 19.1604 6.17751 19.1265 5.83355 19.0611C6.55175 21.3017 8.6349 22.9343 11.1044 22.9779C9.17264 24.4918 6.73947 25.3941 4.09678 25.3941C3.64139 25.3941 3.19206 25.3674 2.75 25.3154C5.24736 26.9177 8.21221 27.8503 11.3975 27.8503C21.7769 27.8503 27.4511 19.2536 27.4511 11.7979C27.4511 11.5557 27.445 11.311 27.4341 11.0688C28.5362 10.2719 29.493 9.27995 30.2476 8.14996L30.25 8.14633Z"
        fill="white" />
</svg>