<svg width="263" height="111" viewBox="0 0 263 111" fill="none" xmlns="http://www.w3.org/2000/svg">
  <path fill-rule="evenodd" clip-rule="evenodd"
    d="M53.6461 21.5058C53.7036 21.5191 53.7537 21.5543 53.7856 21.6039C53.8176 21.6534 53.829 21.7136 53.8173 21.7714C52.5255 23.6796 50.1399 24.8045 48.0398 26.1887C43.4292 29.2112 38.4832 32.4335 33.8065 35.0942C33.919 33.5837 35.2339 33.2255 36.5633 32.4032C41.4593 29.3539 46.1787 26.3883 51.0659 23.2979C51.9956 22.7089 52.9687 22.162 53.6461 21.5058Z"
    fill="#FEFDFD" />
  <path fill-rule="evenodd" clip-rule="evenodd"
    d="M62.2672 21.7716C64.9882 22.4422 65.2773 28.061 63.3396 29.8781C63.5447 28.2697 64.444 26.7075 63.6932 25.0188C63.2115 23.933 61.6038 23.2001 62.2675 21.7709"
    fill="#FEFDFD" />
  <path fill-rule="evenodd" clip-rule="evenodd"
    d="M166.978 22.6704C166.562 24.9816 163.208 25.1403 160.84 26.1887C152.681 29.782 144.191 32.9508 136.106 36.4548C132.816 37.8762 129.713 39.4755 126.498 40.5956C126.489 39.5738 127.717 39.285 128.375 38.9728C137.375 34.6984 147.033 31.0467 156.565 27.1762C160.125 25.7335 163.786 24.38 166.978 22.6699"
    fill="#FEFDFD" />
  <path fill-rule="evenodd" clip-rule="evenodd"
    d="M74.9895 24.835C75.4285 25.7962 73.9082 25.9657 73.2998 26.2758C69.8366 28.0218 65.8059 30.6344 62.0927 32.3085C62.0178 31.0632 63.7597 30.6823 64.7584 30.1472C67.8167 28.5066 71.5369 26.2792 74.638 25.0167C74.72 24.9774 74.7754 24.8365 74.9003 24.8331H74.9895V24.835Z"
    fill="#FEFDFD" />
  <path fill-rule="evenodd" clip-rule="evenodd"
    d="M49.0998 29.0685C50.5861 30.8767 51.1892 34.0472 51.7743 36.453C50.9829 36.7865 51.0053 35.5633 50.3505 35.4544C49.7367 36.2568 49.9561 37.4265 49.9969 38.429C50.236 44.0052 52.0274 49.059 51.6795 55.1843C51.4994 58.5369 50.6054 63.1339 46.8852 62.8397C45.4708 62.7219 44.0857 61.3632 43.5986 60.22C42.1586 56.9355 43.3524 51.1453 41.4539 48.4311C40.6687 51.2682 39.625 53.8416 36.913 54.7276C36.6918 61.4665 32.0259 65.4641 26.946 67.8808C23.9645 69.2969 19.9963 70.3277 17.7945 67.5155C15.5195 64.6356 17.0705 59.0631 18.4207 55.9902C14.9164 56.4432 10.2451 57.3723 6.9336 55.9902C4.80678 55.1077 2.92798 53.3209 1.33459 51.7587C0.82793 51.2707 0.0089242 50.794 0 50.0449C7.50643 54.7618 24.111 53.0235 28.4593 46.4437C27.6992 44.2358 24.2769 44.8441 22.0697 43.742C21.3202 43.3782 20.1266 42.524 19.9321 41.6721C19.5467 40.0992 20.4282 38.2376 20.901 37.0857C21.9955 34.4499 23.3151 32.4761 25.6222 30.8676C26.4037 30.3254 28.4539 29.1486 29.7065 29.8797C30.7752 30.4984 30.3148 33.0806 29.8812 34.2022C29.4477 34.2682 29.0176 33.3088 28.3771 33.1179C25.3742 32.226 22.0123 36.2832 21.0811 38.3393C22.1036 41.8988 29.0479 39.8749 29.7991 43.4805C30.1916 45.3634 29.1978 47.5319 28.4591 48.8855C26.6374 52.2326 23.3667 53.9463 19.4734 55.273C17.4805 57.9533 16.4257 64.2286 20.1854 65.541C21.0079 65.8244 21.8572 65.7924 22.8618 65.7261C25.3472 65.541 27.8506 64.2085 29.9792 63.0168C32.1882 61.7827 34.133 60.1065 35.2304 58.5177C34.9431 55.9934 34.133 53.9757 32.9965 52.3013C33.1266 51.1369 33.1817 49.9064 33.5317 48.9666C34.4311 49.5409 34.4846 50.552 35.4035 50.9442C36.5187 51.4346 37.682 51.0888 38.5135 50.6802C40.5369 49.6942 40.9705 46.6626 41.7295 44.7421C43.1855 45.6926 43.2908 48.3175 43.5013 50.7675C43.6993 53.1499 43.8688 55.8053 44.7485 57.3422C45.1606 58.068 45.9653 58.9668 46.7859 59.1454C47.4857 59.322 48.2221 59.2881 48.9027 59.0479C49.5833 58.8077 50.1777 58.3719 50.6113 57.7952C50.0117 52.2779 49.0822 45.9134 48.5683 39.9627C48.3917 37.8836 48.4114 35.7615 48.0385 33.9336C47.9527 33.5486 47.6923 33.2613 47.6833 32.8495C47.6316 31.4479 48.8957 30.2442 49.1001 29.069"
    fill="#FEFDFD" />
  <path fill-rule="evenodd" clip-rule="evenodd"
    d="M164.93 29.4307C166.188 31.7634 166.915 34.3453 167.058 36.9917C166.317 37.1182 166.373 35.7346 165.644 35.5508C165.617 40.1407 166.17 45.7385 166.529 50.6795C166.655 52.4075 166.891 54.287 166.707 55.9047C166.44 58.4189 165.119 62.0444 162.885 62.2973C161.769 62.3873 160.653 62.1348 159.684 61.5737C158.337 60.7491 158.107 59.0434 157.463 57.7113C156.231 58.8526 155.659 61.7181 153.462 61.9375C151.848 62.0961 150.816 60.946 150.436 59.4106C148.914 59.9171 148.714 61.8536 147.044 62.2977C144.519 62.9718 142.048 61.2814 142.247 58.5192C139.317 59.7068 135.279 61.8948 131.75 60.404C130.051 59.6942 128.609 57.6721 128.376 55.2713C128.112 55.1858 128.035 55.4246 127.924 55.5478C126.07 57.4452 124.316 62.1602 120.186 60.7654C119.577 60.5197 119.005 60.1889 118.489 59.783C118.032 59.3959 117.274 58.03 116.63 57.8893C115.691 57.6823 114.653 58.7682 113.869 59.0607C112.647 59.5048 110.975 59.7366 109.332 60.1361C105.219 61.14 99.0581 62.2011 94.5618 61.0419C92.6527 60.5428 90.5776 59.5851 89.4037 58.5204C88.9308 58.0853 88.1724 57.1971 88.0707 56.5356C87.9601 55.851 88.1044 54.838 88.0707 54.0141C87.9458 51.3964 88.4525 50.1772 89.2215 48.4344C89.6593 47.4661 90.0029 46.5049 90.9184 46.1732C90.5347 48.2431 88.8665 49.242 89.1376 51.7619C89.259 52.9159 90.0334 54.3245 90.6561 55.0056C95.4825 60.3144 109.455 57.3934 115.381 55.2713C114.324 52.7962 114.574 49.3491 115.739 46.8066C116.235 45.6923 117.204 43.7876 118.582 43.8393C120.159 43.8928 122.2 47.0599 122.409 48.6987C122.456 49.208 122.456 49.7207 122.409 50.23C122.063 52.8317 120.489 54.9341 119.021 56.2591C119.748 57.2273 121.545 57.411 122.935 57.2594C126.632 56.8369 126.937 52.4322 129.703 51.2158C129.599 52.4019 129.03 53.2184 129.342 54.3723C129.781 55.9683 132.253 57.0578 134.238 57.2594C138.273 57.65 141.832 55.7846 144.296 54.9127C144.5 55.774 143.497 56.1343 143.49 56.8974C143.479 58.6486 146.707 59.3583 148.465 58.6005C150.34 57.8036 150.946 55.0768 152.567 54.6458C152.713 55.5911 151.594 55.7901 151.585 56.7108C151.578 58.1178 153.493 58.7935 155.057 58.3371C156.977 57.7666 157.445 54.7813 158.972 54.1911C159.024 54.8509 158.324 55.1308 158.339 55.7247C158.399 57.4704 162.889 59.7603 164.749 58.5172C165.217 54.7278 164.591 50.6067 164.312 46.4428C164.019 42.2357 164.201 37.9191 163.767 34.1076C163.707 33.5849 163.471 33.1802 163.507 32.5794C163.582 31.2614 164.54 30.5252 164.929 29.4302M119.291 53.2031C119.748 52.8803 120.808 52.1796 120.894 51.7606C121.036 51.0669 120.098 49.2799 119.464 48.5203C119.02 47.9834 118.032 47.2472 117.248 47.3468C115.41 47.5841 115.523 50.3641 116.09 52.0298C116.36 52.8484 116.745 53.6669 117.334 54.1929C117.983 53.8826 118.619 53.6649 119.291 53.2031Z"
    fill="#FEFDFD" />
  <path fill-rule="evenodd" clip-rule="evenodd"
    d="M63.777 58.601C63.6861 57.7451 62.9973 57.194 62.71 56.4449C61.4966 53.2102 62.8902 48.7665 65.0207 47.0794C67.7934 44.8951 72.6681 47.3594 75.9655 45.7259C77.459 44.9893 78.0923 43.4558 78.7293 41.7637C78.8577 42.9691 78.4045 44.2958 77.9246 45.3621C76.9539 47.5466 75.1463 49.3959 72.14 49.5135C69.0497 49.6242 65.4098 48.1867 63.7753 50.9439C63.6927 51.775 63.8165 52.6136 64.1358 53.3854C64.871 55.0542 66.509 56.8715 67.7919 57.7113C70.0829 59.2056 72.9716 58.3962 75.4287 57.2603C77.685 56.2187 79.6213 55.2577 81.5773 54.1931C80.223 58.1714 77.4592 59.2091 73.7475 60.5894C71.0925 61.5739 66.6301 63.3535 62.8902 62.2086C58.0834 60.7412 58.2368 53.4352 57.7264 47.4417C57.4981 44.6758 57.1751 42.026 56.9271 39.6043C56.7968 38.2348 56.704 36.9916 56.3954 35.8219C55.8315 33.6658 55.3837 31.9968 56.308 29.9623C56.3318 29.902 56.3677 29.8472 56.4134 29.8012C56.4591 29.7551 56.5137 29.7189 56.5739 29.6947C56.6451 29.6752 56.6612 29.7374 56.6683 29.7802C58.4134 34.8642 58.5454 42.4038 59.2538 48.7808C59.7421 53.351 59.9389 57.4937 63.777 58.601Z"
    fill="#FEFDFD" />
  <path fill-rule="evenodd" clip-rule="evenodd"
    d="M174.886 30.9624C175.871 32.9915 176.829 35.0673 177.036 37.892C176.235 37.8795 176.279 37.0272 175.691 36.8077C175.375 41.1644 176.039 45.8881 176.317 50.2285C176.597 54.5871 177.025 59.8458 174.981 62.6524C175.002 55.9243 174.393 48.925 174.088 42.2165C173.985 39.8942 174.188 37.5158 173.91 35.3722C173.853 34.9798 173.555 34.6394 173.555 34.1988C173.567 33.0629 174.599 32.0161 174.885 30.9624"
    fill="#FEFDFD" />
  <path fill-rule="evenodd" clip-rule="evenodd"
    d="M114.487 34.1079C115.6 34.7518 116.826 35.2831 117.605 36.2709C117.463 37.6676 116.737 38.4502 116.09 39.3347C115.06 38.6642 114.013 38.015 113.066 37.2591C113.305 35.9633 114.058 35.2046 114.486 34.1079"
    fill="#FEFDFD" />
  <path fill-rule="evenodd" clip-rule="evenodd"
    d="M67.0726 41.2231C66.5087 40.1158 65.3935 39.5699 64.7602 38.5178C65.3366 37.5068 65.9146 36.5011 66.6301 35.6452C67.3937 36.5938 69.012 37.2002 68.8621 38.7034C68.7426 39.7199 67.7415 40.5347 67.0726 41.2231Z"
    fill="#FEFDFD" />
  <path fill-rule="evenodd" clip-rule="evenodd"
    d="M155.321 36.8077C156.23 38.0131 156.938 40.9216 155.589 42.1162C155.007 42.2483 153.976 42.3323 153.636 41.9399C153.295 42.2074 153.12 42.6192 152.738 42.8439C150.583 43.2256 150.715 41.6063 150.519 39.6929C150.438 38.9525 150.128 38.2003 150.608 37.8923C151.579 38.4813 150.622 40.9046 151.586 41.5871C152.037 41.9028 152.953 41.7993 153.279 41.1395C153.24 39.8484 152.408 38.346 153.099 37.1719C154.12 38.2078 153.122 41.2893 155.415 41.0397C155.99 39.7271 154.113 37.9637 155.322 36.8082"
    fill="#FEFDFD" />
  <path fill-rule="evenodd" clip-rule="evenodd"
    d="M142.332 38.7018C142.485 38.6715 142.501 38.7731 142.51 38.8764C142.303 40.4369 139.416 43.01 140.564 45.5494C141.069 46.6959 142.985 46.9081 142.862 44.9181C143.69 46.4803 141.977 48.9127 140.371 47.4414C138.226 45.4567 141.449 40.016 142.332 38.7018Z"
    fill="#FEFDFD" />
  <path fill-rule="evenodd" clip-rule="evenodd"
    d="M11.3891 60.4019C11.8692 61.1724 13.7104 61.9502 13.5981 63.3782C13.5767 63.8099 13.0379 64.3236 12.7185 64.7282C12.5164 64.9868 11.9798 65.8894 11.7389 65.8981C11.1749 65.9301 10.3293 63.8562 9.59772 63.8259C8.76087 64.4749 8.26313 66.0549 7.02486 65.8108C6.10954 65.6324 5.21375 63.4943 4.534 62.9291C5.04251 61.8556 5.48501 60.7108 6.31294 59.9582C7.15687 60.4753 7.74923 61.8484 8.53978 62.4762C10.0815 63.7047 10.4134 61.3723 11.3893 60.4023"
    fill="#FEFDFD" />
  <path fill-rule="evenodd" clip-rule="evenodd"
    d="M122.049 64.1039C122.918 63.3802 123.362 62.2314 124.358 61.6698C125.286 62.4668 126.36 63.1231 127.038 64.1914C126.408 65.1472 125.869 66.1885 124.895 66.7984C123.926 66.1263 123.236 65.1775 122.238 64.5434C121.241 65.0195 120.9 66.6922 119.826 66.7153C118.782 66.7321 118.176 65.0371 117.25 64.5434C117.494 63.238 118.461 62.6692 119.02 61.6723C120.19 62.3232 121.034 63.3047 122.049 64.1045"
    fill="#FEFDFD" />
  <path fill-rule="evenodd" clip-rule="evenodd"
    d="M44.034 65.8086C44.0643 66.549 43.6611 66.9623 43.2329 67.5171C43.0116 67.8078 42.4388 68.769 42.0749 68.7793C41.7181 68.7899 41.0151 67.8231 40.7439 67.6075C40.139 67.1439 39.6698 67.0263 39.2308 66.6178C38.4778 67.4791 37.8051 68.4262 36.913 69.1412C35.9475 68.3852 35.0551 67.5404 34.2474 66.6178C34.7273 65.5159 35.4597 64.6598 36.1102 63.7363C37.272 64.3421 37.907 65.4624 38.9686 66.1764C40.0159 65.6093 40.2652 64.2487 41.1865 63.5605C42.4016 64.0401 43.0618 65.0779 44.0342 65.8091"
    fill="#FEFDFD" />
  <path fill-rule="evenodd" clip-rule="evenodd"
    d="M127.474 27.5349C129.29 27.1302 132.556 26.5421 134.42 27.3513C134.515 28.6175 133.887 29.4697 133.25 30.1474C131.722 31.8041 129.374 33.532 126.687 33.7443C127.206 32.8276 128.354 32.5494 129.262 32.036C130.153 31.5183 131.012 30.9466 131.833 30.3241C129.918 30.1527 127.563 30.3276 126.056 30.8643C126.204 29.7819 126.919 28.5034 127.474 27.5351"
    fill="#FEFDFD" />
  <path fill-rule="evenodd" clip-rule="evenodd"
    d="M100.944 72.0216C101.008 72.009 101.021 72.066 101.023 72.1105C100.395 72.4075 99.9046 72.9321 99.6501 73.5776C99.3956 74.2231 99.3964 74.9413 99.6525 75.5862C102.006 74.5073 108.276 72.3994 110.283 75.497C110.867 79.454 104.334 79.7538 101.706 78.2717C101.023 77.8794 100.322 76.731 99.9987 76.7066C99.8134 76.6942 98.7068 77.8496 98.541 78.012C97.433 79.1639 95.8974 81.6693 95.7112 83.2992C95.5078 85.1681 96.1466 86.7337 97.6827 86.8585C99.2743 86.9905 100.791 85.8974 101.54 85.038C102.748 83.6581 102.63 81.0113 105.649 81.7407C105.533 83.1585 104.539 83.8467 104.029 84.7758C103.511 85.7334 103.19 86.6214 102.571 87.4648C100.783 89.8686 97.7925 92.5489 93.3941 92.2315C91.8258 92.1245 89.7702 91.2916 89.6276 89.3707C89.5686 88.4399 89.8737 87.3895 90.5767 87.1131C91.4761 86.7708 92.6037 87.2523 92.4609 88.4185C92.3235 89.508 91.0634 89.0853 91.5242 90.676C91.8273 91.7514 93.3387 92.0868 94.6805 91.9718C97.9779 91.6936 100.246 87.396 101.539 85.2953C99.8621 87.3033 93.7563 88.8707 93.2282 84.5091C92.6662 79.9368 96.7272 77.5009 99.3947 75.7622C98.8183 74.0094 99.657 72.4416 100.944 72.0211M108.734 76.1937C108.934 74.867 108.147 74.3303 107.187 74.1947C104.139 73.7472 101.759 75.5106 100.171 76.62C101.472 79.2021 108.238 79.3785 108.734 76.1935"
    fill="#FEFDFD" />
  <path fill-rule="evenodd" clip-rule="evenodd"
    d="M19.3808 91.5375C23.2563 90.7802 24.6175 87.4754 27.0014 85.214C25.7328 87.1508 23.4008 90.2429 21.0116 91.5375C19.3362 92.4398 17.0166 92.2491 16.8007 90.0646C16.583 87.6146 17.8427 85.7243 18.4369 84.0801C17.4234 84.3139 16.1762 83.7772 15.1716 84.0801C14.5847 84.262 13.5855 85.7098 12.8717 86.5123C10.836 88.7663 7.62783 92.0724 3.52455 91.8944C1.78669 91.8103 -0.152894 90.9597 0.0166654 88.7665C0.139752 87.156 1.79561 86.4642 2.75909 87.7248C2.94111 88.9555 2.2755 89.3235 1.39049 89.4637C1.58497 90.8813 2.45028 91.5447 3.87057 91.6285C6.76285 91.78 9.13955 89.7722 10.8921 88.1583C12.7833 86.425 14.2501 84.5205 15.8541 82.6945C19.1229 79.0049 23.2231 75.1976 27.9462 73.5875C28.6332 73.3467 27.7571 74.2774 27.6 74.454C24.5328 78.0705 21.7673 81.4818 19.8937 86.0809C19.2924 87.5412 18.2237 89.9253 19.3817 91.5375M25.55 74.9783C21.2963 77.0651 18.3005 80.4154 15.3547 83.8249H18.6115C20.4614 80.5413 22.8006 77.5583 25.5488 74.9783"
    fill="#FEFDFD" />
  <path fill-rule="evenodd" clip-rule="evenodd"
    d="M37.8034 74.454C35.2395 78.675 32.7754 82.7157 30.1685 86.9438C29.3674 88.2564 28.0274 89.6795 28.2897 91.5356C29.4423 91.7746 30.4362 90.9865 31.1214 90.4123C31.9465 89.7098 32.7772 88.7632 33.5159 87.8943C34.2814 87.008 34.9059 85.956 35.8283 85.2943C34.1529 87.224 32.1135 90.6962 29.4852 91.7997C28.6413 92.1475 26.8499 92.2598 26.3949 91.5341C25.4921 90.0738 27.2692 87.7814 27.8563 86.7673C30.281 82.5856 32.7112 78.6305 35.1433 74.6253C35.9659 74.5058 36.9169 74.5129 37.8038 74.4542"
    fill="#FEFDFD" />
  <path fill-rule="evenodd" clip-rule="evenodd"
    d="M133.753 74.454C131.276 78.6554 128.52 82.7923 125.956 87.0313C125.167 88.3349 123.843 89.8933 124.329 91.6285C126.274 91.4148 127.458 90.0682 128.52 88.9341C129.644 87.7536 130.504 86.3128 131.78 85.2963C130.846 86.6122 129.817 87.8589 128.704 89.0269C127.571 90.1559 126.427 91.5769 124.928 91.9747C122.858 92.5273 121.716 91.4646 122.357 89.5423C123.185 87.0529 125.112 84.5443 126.641 81.9993C128.204 79.3977 129.649 76.8226 131.086 74.6275C131.916 74.5061 132.869 74.5134 133.754 74.4545"
    fill="#FEFDFD" />
  <path fill-rule="evenodd" clip-rule="evenodd"
    d="M142.585 74.454C140.103 78.6589 137.34 82.7923 134.776 87.0313C133.994 88.3349 132.656 89.8933 133.152 91.6285C135.1 91.4306 136.278 90.0682 137.347 88.9341C138.476 87.7536 139.327 86.3128 140.607 85.2963C139.674 86.6178 138.641 87.865 137.516 89.0269C136.403 90.1559 135.26 91.5769 133.751 91.9747C131.682 92.5273 130.525 91.4646 131.177 89.5423C132.013 87.0886 133.923 84.6153 135.462 81.9993C137.027 79.3404 138.556 76.7601 139.927 74.6275C140.742 74.5061 141.689 74.5134 142.585 74.4545"
    fill="#FEFDFD" />
  <path fill-rule="evenodd" clip-rule="evenodd"
    d="M84.4066 78.3631C84.858 77.3306 85.2632 75.0443 83.9747 74.802C83.2843 74.6771 82.5224 75.2335 82.0067 75.6702C79.9583 77.4072 78.1844 80.9168 76.9446 83.1295C78.9768 83.2384 81.4572 82.8996 83.2109 83.299C82.4062 83.7644 81.2053 83.5664 80.0385 83.5664H76.6936C74.7255 86.6212 73.1394 90.3412 70.6931 93.706C68.4681 96.7768 65.3063 99.6584 60.4995 99.6032C58.6564 99.5833 56.4402 98.8773 55.9621 97.3471C55.0414 94.4725 57.8143 92.9549 60.4995 93.449C58.9794 93.8627 57.5911 95.127 57.9337 97.1758C58.1782 98.6951 59.5931 99.5101 61.6986 99.257C65.0923 98.8558 67.501 94.9183 69.0765 92.492C71.0802 89.3643 72.6272 86.3237 74.2081 83.5667C73.5159 83.4545 72.3953 83.7826 71.9796 83.3851C72.3739 82.8591 73.6693 83.2477 74.465 83.1283C76.4812 80.3303 79.0773 75.0359 83.4613 74.5364C84.9904 74.3707 86.6302 74.8915 86.8963 76.0174C87.2977 77.7418 86.0131 78.4389 84.4073 78.3641"
    fill="#FEFDFD" />
  <path fill-rule="evenodd" clip-rule="evenodd"
    d="M69.2405 77.6665C70.3985 77.3796 70.8945 77.9787 70.782 78.9663C70.6179 80.3055 68.4321 80.5018 68.2108 79.1395C68.0593 78.1675 68.557 77.8235 69.2403 77.6665"
    fill="#FEFDFD" />
  <path fill-rule="evenodd" clip-rule="evenodd"
    d="M56.046 84.1636C56.4046 84.0155 56.4366 83.5253 56.7347 83.297C57.4947 83.1669 58.3848 83.181 59.2166 83.1277C58.1693 85.1819 56.5777 87.0042 55.4501 89.1997C55.1147 89.8469 54.5455 90.826 55.1022 91.6267C57.1433 91.5257 58.2087 90.0413 59.3025 88.9341C60.4461 87.7787 61.4596 86.4858 62.5623 85.2962C61.1479 87.1579 58.1248 91.8283 55.103 92.2313C53.6971 92.4203 52.6087 91.7838 52.9673 90.3268C51.6452 92.1275 46.6331 93.8379 46.9704 89.2013C47.197 86.0114 51.3365 82.2219 54.4251 82.6962C55.2014 82.8121 55.6974 83.3703 56.0472 84.1638M53.228 83.2133C51.6935 83.8837 49.7718 86.7727 49.3668 89.0267C48.929 91.4126 50.5891 91.9459 52.0254 90.7634C53.0924 89.8683 54.8998 87.131 55.2728 85.2122C55.5654 83.7089 55.0978 82.9829 54.0808 83.0455C53.7891 83.0539 53.5009 83.1108 53.228 83.2138"
    fill="#FEFDFD" />
  <path fill-rule="evenodd" clip-rule="evenodd"
    d="M116.358 84.1638C116.742 84.0246 116.783 83.5541 117.043 83.2988C117.794 83.1686 118.701 83.181 119.529 83.1295C118.514 85.1964 116.87 87.0063 115.759 89.2016C115.425 89.8579 114.907 90.8351 115.418 91.6304C117.431 91.4789 118.626 90.0879 119.702 88.9356C120.26 88.3546 120.813 87.7321 121.336 87.1152C121.857 86.4875 122.243 85.7312 122.951 85.2963C121.442 87.0473 118.58 91.8283 115.418 92.2313C114.082 92.4025 113.009 91.9084 113.277 90.3265C112.048 92.1241 107.05 93.7736 107.275 89.3727C107.433 86.3715 111.316 82.1826 114.729 82.6943C115.527 82.8121 116.057 83.322 116.358 84.1638M109.678 89.1159C109.578 90.0468 109.675 90.8172 110.192 91.1917C111.726 92.2973 113.684 89.2283 114.223 88.3308C114.76 87.4285 117.136 82.8579 114.385 83.0435C112.165 83.1809 109.894 87.0381 109.678 89.1155"
    fill="#FEFDFD" />
  <path fill-rule="evenodd" clip-rule="evenodd"
    d="M142.664 88.0744C142.098 93.4953 147.487 90.9882 149.595 89.0265C151.016 87.7069 152.042 85.9862 153.112 85.296C150.848 87.846 148.823 91.8012 143.943 92.231C141.072 92.4896 139.318 90.3211 140.517 87.4644C141.461 85.223 144.435 82.9172 147.034 82.6959C148.354 82.582 149.655 82.9937 149.774 84.0813C149.94 85.6348 148.093 86.5336 147.034 86.9454C145.531 87.5214 144.193 87.7496 142.664 88.0742M146.604 83.0454C144.853 83.5839 143.344 86.1999 142.746 87.8067C145.159 87.1931 147.78 85.9416 147.717 83.2125C147.558 83.0984 147.374 83.0237 147.181 82.9945C146.987 82.9652 146.79 82.9823 146.604 83.0442"
    fill="#FEFDFD" />
  <path fill-rule="evenodd" clip-rule="evenodd"
    d="M155.425 87.5518C156.142 86.5159 157.985 84.9939 159.454 83.8249C160.282 83.1652 161.018 82.523 162.715 82.696C162.264 83.6983 161.127 84.6986 161.515 86.0824C161.959 87.6962 164.475 86.1287 164.851 85.2979C164.535 87.0061 160.217 88.4702 159.282 86.0824C159.247 85.2943 159.265 84.5596 159.534 84.0817C156.697 85.9434 154.818 88.7734 153.112 91.8051H150.72C152.347 88.8643 154.122 86.0577 155.771 83.1312C156.685 83.1063 157.518 82.9966 158.519 83.0471C157.55 84.6092 156.403 85.9895 155.425 87.5515"
    fill="#FEFDFD" />
  <path fill-rule="evenodd" clip-rule="evenodd"
    d="M170.247 83.0455C169.51 84.3413 168.612 85.6795 167.768 87.0312C166.998 88.2616 165.638 89.7293 166.23 91.4483C168.368 91.1502 169.651 89.4706 170.759 88.076C171.911 86.6387 172.871 84.8571 173.667 83.131C174.482 83.1113 175.194 82.9902 176.076 83.0469C174.418 86.1069 172.757 89.167 171.024 92.1522C174.304 91.0947 176.516 88.6676 178.475 86.164C178.72 85.8518 178.914 85.3882 179.332 85.299C177.278 88.4841 174.734 91.1624 170.849 92.4947C168.797 95.6635 165.568 99.606 160.133 99.606C157.872 99.606 154.575 98.5325 155.601 95.3582C156.049 93.9567 158.352 93.0722 160.227 93.8016C156.589 93.5217 157.05 98.7412 159.533 99.2598C160.249 99.3619 160.977 99.3312 161.682 99.1691C166.28 97.9575 168.45 91.9896 170.678 88.6817C169.591 89.5002 168.228 91.5191 166.481 91.9772C165.025 92.3678 163.853 91.8828 164.001 90.2459C164.226 87.678 166.992 85.0495 167.682 83.1324C168.558 83.1145 169.306 82.9844 170.246 83.045"
    fill="#FEFDFD" />
  <path fill-rule="evenodd" clip-rule="evenodd"
    d="M68.1255 83.1295C67.4351 84.5061 66.4661 85.7866 65.6435 87.115C64.8619 88.3706 63.6539 89.7614 64.0091 91.5373C65.87 91.4485 66.9852 89.9253 68.1253 88.7681C68.7195 88.1727 69.2994 87.5662 69.8329 86.9455C70.3468 86.3623 70.782 85.5867 71.4673 85.2979C70.6626 86.6049 69.4744 87.8319 68.2092 89.1179C67.0583 90.2791 65.7951 91.8123 64.0981 92.0621C62.6617 92.2796 61.6876 91.6501 61.8755 90.065C62.1557 87.597 64.9944 84.9966 65.7277 83.2137C66.6252 83.285 67.2622 83.094 68.1258 83.1295"
    fill="#FEFDFD" />
  <path fill-rule="evenodd" clip-rule="evenodd"
    d="M41.5666 86.2537C42.2179 84.9396 42.2463 82.5215 40.3657 83.0456C39.6324 83.2475 39.2577 84.0889 39.4306 85.1215C39.6036 86.1541 40.792 86.8716 41.2256 88.16C41.7841 89.7924 40.9419 90.9901 39.7696 91.714C43.413 90.7583 45.0421 87.741 47.3206 85.3835C45.2634 88.7894 41.6538 92.6859 36.8576 92.2347C35.8371 92.1401 34.4506 91.5748 34.1081 90.5924C33.6781 89.3013 34.3508 87.6572 35.2376 87.3782C37.352 86.7183 37.5625 89.9698 35.4036 89.3757C34.1992 92.7511 39.1363 92.5058 39.4325 90.0675C39.6538 88.2129 37.7071 87.5601 37.4574 85.8981C36.9543 82.5458 42.2677 81.6023 43.7986 84.0828C44.0512 85.784 43.0241 86.549 41.5666 86.2537Z"
    fill="#FEFDFD" />
  <path fill-rule="evenodd" clip-rule="evenodd"
    d="M214.151 0C217.54 1.23234 219.211 6.70241 217.388 10.8661C219.957 12.227 220.167 17.2777 218.709 20.1039C221.568 21.3535 223.725 23.3317 225.365 25.9679C226.917 28.4696 228.357 31.6974 228.6 35.311C228.862 39.5854 226.469 42.3829 223.661 44.0601C220.624 45.8622 216.8 46.3127 212.918 46.9463C209.29 47.5301 205.397 48.3523 201.889 49.5429C198.593 50.6628 194.491 52.4879 192.672 55.0317C191.473 56.711 190.419 58.9961 189.63 61.2767C187.069 68.6926 188.329 77.6222 192.101 83.5973C187.608 80.7331 185.452 74.8321 185.355 68.2014C185.248 61.2849 187.039 55.357 190.778 51.5593C192.621 49.6745 195.378 48.028 198.1 46.85C200.951 45.6015 204.117 45.0977 207.591 44.4422C213.807 43.2811 222.571 42.8531 224.601 37.6124C224.828 37.0438 224.975 35.9145 224.988 35.4976C225.02 32.0264 223.596 28.7732 222.04 26.4522C220.369 23.9656 218.281 22.1808 215.291 21.2566C217.61 18.7549 216.972 13.0218 214.717 10.9576C215.353 9.77965 216.073 8.32399 215.859 6.14993C215.759 5.15975 215.199 2.87681 214.236 2.78426C213.162 2.6811 212.178 4.99063 212.056 6.05856C211.806 8.03909 212.571 9.60379 213.103 10.7724C212.646 11.4455 212.042 11.8194 211.591 12.5987C210.126 15.1085 210.82 18.97 211.869 21.4505C204.013 22.6064 201.485 29.1513 199.518 36.2695C199.643 28.0499 202.708 21.9913 209.016 19.719C207.68 16.4169 209.059 12.4606 210.821 10.5812C208.795 6.40135 211.072 1.40366 214.152 0"
    fill="#FEFDFD" />
  <path fill-rule="evenodd" clip-rule="evenodd"
    d="M197.995 53.7763C198.015 53.6697 198.101 53.7241 198.101 53.7763C203.912 59.1179 201.774 72.2611 199.042 79.465C197.666 83.0624 195.706 85.8374 194.193 89.0873C192.726 92.2584 191.41 97.1425 192.858 100.824C195.545 107.601 204.459 110.004 214.059 109.573C207.348 106.907 202.988 101.861 199.701 95.7156C199.97 95.5453 200.308 96.1511 200.661 96.4927C204.38 100.138 208.328 103.77 213.681 106.018C215.62 106.839 217.899 107.545 220.43 107.359C225.324 106.996 228.089 103.871 229.063 99.5643C230.164 94.7926 228.775 89.5204 227.367 85.622C226.023 81.9401 223.967 78.2558 222.796 73.784C221.681 69.5184 221.093 63.7483 222.703 59.5499C225.54 52.1286 233.998 47.397 244.178 50.5067C252.454 53.035 258.097 58.38 263 64.3645C259.329 61.0311 254.926 57.8114 249.503 55.8889C244.226 54.0253 235.754 52.7119 230.973 55.8889C226.982 58.5503 225.217 62.6458 225.269 67.8182C225.365 78.0414 232.063 85.4039 233.542 94.6662C234.449 100.386 232.784 104.737 229.448 107.55C228.032 108.75 226.023 109.986 223.846 110.445C220.605 111.125 216.962 110.437 214.534 109.674C208.308 112.245 199.414 110.792 195.055 107.754C191.62 105.365 189.014 100.978 188.682 96.5887C188.331 91.942 190.01 88.8148 191.637 85.9089C194.76 80.2697 197.645 73.639 198.854 65.8954C199.462 61.99 199.599 57.0676 197.995 53.7761"
    fill="#FEFDFD" />
  <path fill-rule="evenodd" clip-rule="evenodd"
    d="M206.271 80.1423C203.944 74.3533 207.84 69.8517 213.398 69.9397C218.926 70.0313 223.224 74.3096 223.749 79.4671C223.825 80.3275 223.825 81.1929 223.749 82.0533C223.204 89.7494 216.799 92.9647 209.307 92.4504C205.762 92.2148 203.201 90.9912 200.36 89.4657C202.734 90.4317 205.626 91.2679 208.925 91.0062C214.235 90.5961 218.48 87.3682 218.997 82.1544C219.436 77.8295 216.485 74.8417 212.819 74.4652C208.881 74.0541 207.272 77.0585 206.272 80.1414"
    fill="#FEFDFD" />
</svg>