<svg width="33" height="33" viewBox="0 0 33 33" fill="none" xmlns="http://www.w3.org/2000/svg">
    <path fill-rule="evenodd" clip-rule="evenodd"
        d="M16.5 2.75C12.7655 2.75 12.298 2.76558 10.8313 2.8325C9.36742 2.89942 8.36733 3.13225 7.49283 3.47233C6.57617 3.817 5.74475 4.35783 5.05725 5.05817C4.35804 5.74487 3.81687 6.5757 3.47142 7.49283C3.13317 8.36733 2.89942 9.36833 2.8325 10.8323C2.7665 12.298 2.75 12.7646 2.75 16.5C2.75 20.2354 2.76558 20.702 2.8325 22.1687C2.89942 23.6326 3.13225 24.6327 3.47233 25.5072C3.817 26.4238 4.35783 27.2553 5.05817 27.9428C5.74489 28.6419 6.57572 29.1831 7.49283 29.5286C8.36733 29.8678 9.36742 30.1006 10.8313 30.1675C12.298 30.2344 12.7655 30.25 16.5 30.25C20.2345 30.25 20.702 30.2344 22.1687 30.1675C23.6326 30.1006 24.6327 29.8678 25.5072 29.5277C26.4238 29.183 27.2553 28.6422 27.9428 27.9418C28.642 27.2551 29.1831 26.4243 29.5286 25.5072C29.8678 24.6327 30.1006 23.6326 30.1675 22.1687C30.2344 20.702 30.25 20.2345 30.25 16.5C30.25 12.7655 30.2344 12.298 30.1675 10.8313C30.1006 9.36742 29.8678 8.36733 29.5277 7.49283C29.1825 6.57531 28.6413 5.74413 27.9418 5.05725C27.2551 4.35804 26.4243 3.81687 25.5072 3.47142C24.6327 3.13317 23.6317 2.89942 22.1678 2.8325C20.702 2.7665 20.2354 2.75 16.5 2.75ZM16.5 5.22775C20.1712 5.22775 20.6067 5.2415 22.0568 5.3075C23.397 5.36892 24.1248 5.59167 24.6098 5.78142C25.2514 6.02983 25.7098 6.32867 26.191 6.809C26.6723 7.29025 26.9702 7.74858 27.2186 8.39025C27.4074 8.87517 27.6311 9.603 27.6925 10.9432C27.7585 12.3933 27.7723 12.8287 27.7723 16.5C27.7723 20.1712 27.7585 20.6067 27.6925 22.0568C27.6311 23.397 27.4083 24.1248 27.2186 24.6098C26.9985 25.207 26.6474 25.7473 26.191 26.191C25.7474 26.6475 25.2071 26.9986 24.6098 27.2186C24.1248 27.4074 23.397 27.6311 22.0568 27.6925C20.6067 27.7585 20.1722 27.7723 16.5 27.7723C12.8278 27.7723 12.3933 27.7585 10.9432 27.6925C9.603 27.6311 8.87517 27.4083 8.39025 27.2186C7.793 26.9985 7.25267 26.6474 6.809 26.191C6.35266 25.7473 6.00153 25.207 5.78142 24.6098C5.59258 24.1248 5.36892 23.397 5.3075 22.0568C5.2415 20.6067 5.22775 20.1712 5.22775 16.5C5.22775 12.8287 5.2415 12.3933 5.3075 10.9432C5.36892 9.603 5.59167 8.87517 5.78142 8.39025C6.02983 7.74858 6.32867 7.29025 6.809 6.809C7.25261 6.35254 7.79296 6.00139 8.39025 5.78142C8.87517 5.59258 9.603 5.36892 10.9432 5.3075C12.3933 5.2415 12.8287 5.22775 16.5 5.22775Z"
        fill="black" />
    <path fill-rule="evenodd" clip-rule="evenodd"
        d="M16.5 21.0879C15.8975 21.0879 15.3009 20.9692 14.7443 20.7387C14.1877 20.5081 13.6819 20.1702 13.2559 19.7441C12.8298 19.3181 12.4919 18.8124 12.2613 18.2557C12.0308 17.6991 11.9121 17.1025 11.9121 16.5C11.9121 15.8975 12.0308 15.3009 12.2613 14.7443C12.4919 14.1876 12.8298 13.6819 13.2559 13.2559C13.6819 12.8298 14.1877 12.4919 14.7443 12.2613C15.3009 12.0308 15.8975 11.9121 16.5 11.9121C17.7168 11.9121 18.8838 12.3955 19.7442 13.2559C20.6046 14.1163 21.0879 15.2832 21.0879 16.5C21.0879 17.7168 20.6046 18.8837 19.7442 19.7441C18.8838 20.6045 17.7168 21.0879 16.5 21.0879ZM16.5 9.4325C14.6256 9.4325 12.828 10.1771 11.5025 11.5025C10.1771 12.8279 9.43252 14.6256 9.43252 16.5C9.43252 18.3744 10.1771 20.1721 11.5025 21.4975C12.828 22.8229 14.6256 23.5675 16.5 23.5675C18.3744 23.5675 20.1721 22.8229 21.4975 21.4975C22.8229 20.1721 23.5675 18.3744 23.5675 16.5C23.5675 14.6256 22.8229 12.8279 21.4975 11.5025C20.1721 10.1771 18.3744 9.4325 16.5 9.4325ZM25.6236 9.30417C25.6236 9.74724 25.4476 10.1722 25.1343 10.4855C24.821 10.7988 24.3961 10.9748 23.953 10.9748C23.5099 10.9748 23.085 10.7988 22.7717 10.4855C22.4584 10.1722 22.2824 9.74724 22.2824 9.30417C22.2824 8.86109 22.4584 8.43616 22.7717 8.12286C23.085 7.80955 23.5099 7.63354 23.953 7.63354C24.3961 7.63354 24.821 7.80955 25.1343 8.12286C25.4476 8.43616 25.6236 8.86109 25.6236 9.30417Z"
        fill="black" />
    <path
        d="M25.3312 29.0596L25.3312 29.0597C26.1798 28.7406 26.9495 28.2399 27.5859 27.5916L27.5923 27.585L27.5924 27.5851C28.2398 26.9493 28.7408 26.1801 29.0607 25.3309L29.0624 25.3264C29.3797 24.5082 29.6033 23.5623 29.668 22.1459L25.3312 29.0596ZM25.3312 29.0596L25.3259 29.0617M25.3312 29.0596L25.3259 29.0617M25.3259 29.0617C24.5081 29.3797 23.5623 29.6033 22.1459 29.668L25.3259 29.0617ZM29.0597 7.66891L29.0597 7.6689C28.7401 6.81944 28.2391 6.04992 27.5915 5.41399L27.585 5.40766L27.5851 5.4076C26.9493 4.76022 26.1801 4.25917 25.3309 3.93932L25.3268 3.93777L25.3268 3.93775C24.5082 3.62113 23.5612 3.39675 22.1453 3.33199L29.0597 7.66891ZM29.0597 7.66891L29.0617 7.67406M29.0597 7.66891L29.0617 7.67406M29.0617 7.67406C29.3797 8.49194 29.6033 9.43769 29.668 10.8541L29.0617 7.67406ZM16.5 3.25C12.7679 3.25 12.3093 3.26559 10.8542 3.33198L16.5 3.25ZM16.5 3.25C20.2327 3.25 20.6906 3.26649 22.1451 3.33199L16.5 3.25ZM3.93834 25.3259C3.62027 24.5081 3.39673 23.5623 3.33198 22.1459L10.8541 29.668C9.43772 29.6033 8.49179 29.3797 7.67364 29.0624L7.66909 29.0607C6.81995 28.7408 6.05071 28.2398 5.41489 27.5924L5.41494 27.5923L5.40844 27.5859C4.76009 26.9495 4.25942 26.1798 3.94034 25.3312L3.94037 25.3312L3.93834 25.3259ZM7.67406 3.93834C8.49194 3.62027 9.43769 3.39673 10.8541 3.33198L3.33199 10.8549C3.39673 9.43884 3.62112 8.49181 3.93775 7.67321L3.93777 7.67321L3.93932 7.66908C4.25917 6.81994 4.76022 6.0507 5.4076 5.4149L5.40766 5.41496L5.41406 5.40844C6.05052 4.76009 6.8202 4.25942 7.66881 3.94034L7.66882 3.94037L7.67406 3.93834ZM22.0797 4.80802L22.0796 4.80802C20.6178 4.74149 20.1733 4.72775 16.5 4.72775C12.8267 4.72775 12.3822 4.74149 10.9204 4.80802L10.9203 4.80802C9.52886 4.87179 8.74796 5.10591 8.21308 5.31384C7.5484 5.55937 6.94698 5.95033 6.45277 6.45813C5.9248 6.98763 5.58841 7.50415 5.31546 8.20891C5.10584 8.74479 4.8719 9.52636 4.80802 10.9203L4.80802 10.9204C4.74149 12.3822 4.72775 12.8267 4.72775 16.5C4.72775 20.1733 4.74149 20.6178 4.80802 22.0796L4.80802 22.0797C4.87179 23.4712 5.10593 24.2521 5.31386 24.787C5.5591 25.4504 5.94908 26.0508 6.45543 26.5446C6.94907 27.0509 7.54935 27.4408 8.21262 27.686C8.7484 27.8952 9.52957 28.1282 10.9203 28.192L10.9204 28.192C12.3822 28.2585 12.8258 28.2723 16.5 28.2723C20.1742 28.2723 20.6178 28.2585 22.0796 28.192L22.0797 28.192C23.4711 28.1282 24.252 27.8941 24.7869 27.6862C25.4504 27.4411 26.0509 27.0511 26.5446 26.5446C27.0509 26.0509 27.4408 25.4506 27.686 24.7874C27.8952 24.2516 28.1282 23.4704 28.192 22.0797L28.192 22.0796C28.2585 20.6178 28.2723 20.1733 28.2723 16.5C28.2723 12.8267 28.2585 12.3822 28.192 10.9204L28.192 10.9203C28.128 9.52536 27.8929 8.74404 27.6846 8.20905C27.4114 7.50353 27.0754 6.98626 26.5446 6.45545L26.5442 6.45511C26.0139 5.92581 25.4969 5.58883 24.7911 5.31548C24.2553 5.10586 23.4737 4.87191 22.0797 4.80802ZM3.25 16.5C3.25 12.7675 3.26649 12.3094 3.33198 10.8551V22.1458C3.26559 20.6907 3.25 20.233 3.25 16.5ZM16.5 29.75C12.7679 29.75 12.3093 29.7344 10.8542 29.668H22.1458C20.6907 29.7344 20.2321 29.75 16.5 29.75ZM29.75 16.5C29.75 20.2321 29.7344 20.6907 29.668 22.1458V10.8542C29.7344 12.3093 29.75 12.7679 29.75 16.5ZM14.553 21.2006C15.1703 21.4563 15.8319 21.5879 16.5 21.5879C17.8494 21.5879 19.1436 21.0519 20.0977 20.0977C21.0519 19.1435 21.5879 17.8494 21.5879 16.5C21.5879 15.1506 21.0519 13.8565 20.0977 12.9023C19.1436 11.9481 17.8494 11.4121 16.5 11.4121C15.8319 11.4121 15.1703 11.5437 14.553 11.7994C13.9357 12.0551 13.3748 12.4298 12.9023 12.9023C12.4299 13.3748 12.0551 13.9356 11.7994 14.5529C11.5437 15.1702 11.4121 15.8318 11.4121 16.5C11.4121 17.1682 11.5437 17.8298 11.7994 18.4471C12.0551 19.0644 12.4299 19.6252 12.9023 20.0977C13.3748 20.5702 13.9357 20.9449 14.553 21.2006ZM11.8561 11.8561C13.0877 10.6244 14.7582 9.9325 16.5 9.9325C18.2418 9.9325 19.9123 10.6244 21.1439 11.8561C22.3756 13.0877 23.0675 14.7582 23.0675 16.5C23.0675 18.2418 22.3756 19.9123 21.1439 21.1439C19.9123 22.3756 18.2418 23.0675 16.5 23.0675C14.7582 23.0675 13.0877 22.3756 11.8561 21.1439C10.6245 19.9123 9.93252 18.2418 9.93252 16.5C9.93252 14.7582 10.6245 13.0877 11.8561 11.8561ZM25.1236 9.30417C25.1236 9.61464 25.0003 9.91239 24.7807 10.1319C24.5612 10.3515 24.2635 10.4748 23.953 10.4748C23.6425 10.4748 23.3448 10.3515 23.1252 10.1319C22.9057 9.91239 22.7824 9.61463 22.7824 9.30417C22.7824 8.9937 22.9057 8.69594 23.1252 8.47641C23.3448 8.25687 23.6425 8.13354 23.953 8.13354C24.2635 8.13354 24.5612 8.25687 24.7807 8.47641C25.0003 8.69594 25.1236 8.9937 25.1236 9.30417Z"
        stroke="white" />
</svg>