<svg xmlns="http://www.w3.org/2000/svg" width="232.299" height="89.631" viewBox="0 0 232.299 89.631">
  <g id="logo" transform="translate(52.351 -360)">
    <g id="Group_1217" data-name="Group 1217" transform="translate(117.283 360)">
      <path id="Path_378" data-name="Path 378" d="M354.124,361c2.735,1,4.083,5.412,2.612,8.774,2.073,1.1,2.243,5.177,1.066,7.459a11.747,11.747,0,0,1,5.371,4.735,16.647,16.647,0,0,1,2.611,7.544,7.459,7.459,0,0,1-3.986,7.065c-2.451,1.455-5.537,1.819-8.669,2.33a55.926,55.926,0,0,0-8.9,2.1c-2.661.9-5.97,2.378-7.439,4.432a20.618,20.618,0,0,0-2.455,5.043,22.011,22.011,0,0,0,1.994,18.024c-3.626-2.313-5.365-7.078-5.444-12.432-.086-5.585,1.359-10.372,4.377-13.438a19.179,19.179,0,0,1,5.909-3.8,35.478,35.478,0,0,1,7.66-1.944c5.017-.938,12.089-1.283,13.727-5.515a6.78,6.78,0,0,0,.312-1.708,13.316,13.316,0,0,0-2.379-7.3,9.864,9.864,0,0,0-5.447-4.2c1.871-2.02,1.357-6.65-.463-8.316a6.3,6.3,0,0,0,.921-3.882c-.08-.8-.532-2.643-1.309-2.718-.867-.083-1.661,1.782-1.759,2.644a6.763,6.763,0,0,0,.845,3.806c-.368.543-.857.846-1.22,1.475-1.182,2.027-.622,5.145.224,7.148-6.34.933-8.38,6.218-9.968,11.966.1-6.637,2.575-11.529,7.665-13.364a7.524,7.524,0,0,1,1.457-7.379c-1.636-3.375.2-7.411,2.688-8.544" transform="translate(-330.881 -361)" fill="#176b37" fillRule="evenodd"/>
      <path id="Path_379" data-name="Path 379" d="M366.778,792.131c.017-.086.086-.042.086,0,4.689,4.313,2.964,14.926.759,20.743-1.11,2.9-2.693,5.146-3.914,7.77-1.184,2.561-2.246,6.5-1.077,9.477,2.169,5.472,9.363,7.413,17.11,7.065-5.416-2.153-8.934-6.228-11.587-11.19.217-.137.49.352.775.628,3,2.943,6.188,5.876,10.507,7.691a11.683,11.683,0,0,0,5.447,1.083c3.95-.293,6.181-2.816,6.967-6.294.888-3.853-.232-8.11-1.368-11.258-1.085-2.973-2.744-5.948-3.689-9.559-.9-3.444-1.374-8.1-.075-11.494,2.289-5.992,9.116-9.813,17.331-7.3,6.679,2.042,11.233,6.358,15.19,11.19a32.411,32.411,0,0,0-10.893-6.844c-4.258-1.5-11.1-2.565-14.954,0-3.221,2.149-4.645,5.456-4.6,9.633.078,8.255,5.483,14.2,6.677,21.679.732,4.619-.612,8.132-3.3,10.4a10.753,10.753,0,0,1-4.521,2.338,15.771,15.771,0,0,1-7.515-.623c-5.025,2.076-12.2.9-15.72-1.551a12.622,12.622,0,0,1-5.143-9.016c-.283-3.752,1.072-6.277,2.385-8.624a48.741,48.741,0,0,0,5.824-16.161c.491-3.154.6-7.128-.693-9.786" transform="translate(-356.574 -748.708)" fill="#176b37" fillRule="evenodd"/>
      <path id="Path_380" data-name="Path 380" d="M465.171,973.1c-1.878-4.674,1.266-8.309,5.752-8.238a8.56,8.56,0,0,1,8.353,7.693,11.975,11.975,0,0,1,0,2.088c-.44,6.215-5.61,8.811-11.656,8.4a16.754,16.754,0,0,1-7.22-2.41,15,15,0,0,0,6.912,1.244c4.285-.331,7.711-2.938,8.128-7.147a5.47,5.47,0,0,0-4.986-6.209c-3.178-.332-4.477,2.094-5.284,4.583" transform="translate(-448.287 -908.385)" fill="#176b37" fillRule="evenodd"/>
    </g>
    <g id="Group_1218" data-name="Group 1218" transform="translate(-52.351 373.018)">
      <path id="Path_381" data-name="Path 381" d="M235.627,1356.04a.207.207,0,0,1,.156.243c-1.178,1.74-3.353,2.767-5.267,4.029-4.2,2.757-8.712,5.7-12.976,8.124.1-1.378,1.3-1.7,2.513-2.455,4.464-2.782,8.766-5.487,13.221-8.306a15,15,0,0,0,2.352-1.635" transform="translate(-186.719 -1356.04)" fill="#176b37" fillRule="evenodd"/>
      <path id="Path_382" data-name="Path 382" d="M376.307,1357.53c2.481.611,2.744,5.738.978,7.4.187-1.467,1.007-2.892.322-4.433-.439-.991-1.9-1.659-1.3-2.962" transform="translate(-319.54 -1357.288)" fill="#176b37" fillRule="evenodd"/>
      <path id="Path_383" data-name="Path 383" d="M773.934,1362.57c-.379,2.108-3.437,2.253-5.6,3.209-7.438,3.278-15.178,6.168-22.549,9.365-3,1.3-5.829,2.756-8.76,3.777-.008-.932,1.111-1.2,1.711-1.48,8.2-3.9,17.01-7.231,25.7-10.761a99.84,99.84,0,0,0,9.493-4.11" transform="translate(-621.706 -1361.509)" fill="#176b37" fillRule="evenodd"/>
      <path id="Path_384" data-name="Path 384" d="M387.817,1374.7c.4.876-.986,1.031-1.54,1.314-3.157,1.593-6.832,3.976-10.217,5.5-.068-1.136,1.519-1.483,2.43-1.972,2.788-1.5,6.18-3.528,9.007-4.68.075-.036.125-.164.239-.167h.081Z" transform="translate(-319.451 -1371.665)" fill="#176b37" fillRule="evenodd"/>
      <path id="Path_385" data-name="Path 385" d="M72.833,1398.45c1.355,1.649,1.9,4.542,2.438,6.736-.722.3-.7-.812-1.3-.911-.56.732-.359,1.8-.322,2.714.218,5.086,1.851,9.7,1.534,15.284-.164,3.058-.979,7.251-4.371,6.983a4.125,4.125,0,0,1-3-2.39c-1.313-3-.224-8.278-1.955-10.754-.716,2.588-1.667,4.936-4.14,5.744-.2,6.147-4.455,9.794-9.087,12-2.718,1.292-6.336,2.232-8.343-.333-2.074-2.627-.66-7.711.571-10.513-3.195.413-7.453,1.26-10.472,0a17.49,17.49,0,0,1-5.1-3.86c-.462-.446-1.209-.88-1.217-1.563,6.843,4.3,21.981,2.717,25.945-3.286-.693-2.013-3.813-1.459-5.825-2.464-.683-.332-1.771-1.111-1.949-1.889-.351-1.435.452-3.133.883-4.184a11.946,11.946,0,0,1,4.3-5.672c.712-.494,2.582-1.568,3.723-.9.974.564.555,2.92.159,3.943-.4.06-.787-.815-1.371-.989-2.738-.813-5.8,2.887-6.651,4.763.932,3.247,7.263,1.4,7.948,4.69.358,1.717-.548,3.7-1.222,4.93-1.661,3.053-4.643,4.617-8.192,5.827-1.817,2.445-2.778,8.169.649,9.366a6.105,6.105,0,0,0,2.44.169c2.266-.169,4.548-1.384,6.489-2.47a14.753,14.753,0,0,0,4.787-4.1,12.359,12.359,0,0,0-2.037-5.671,13.78,13.78,0,0,1,.488-3.042c.82.524.869,1.446,1.706,1.8a3.367,3.367,0,0,0,2.835-.241c1.845-.9,2.24-3.665,2.931-5.417,1.327.867,1.423,3.262,1.615,5.5.181,2.173.335,4.6,1.137,6a3.42,3.42,0,0,0,1.858,1.645,3.339,3.339,0,0,0,3.488-1.231c-.547-5.033-1.394-10.838-1.863-16.267a51.233,51.233,0,0,0-.483-5.5c-.078-.351-.316-.613-.324-.989-.047-1.279,1.1-2.376,1.292-3.448" transform="translate(-28.07 -1391.552)" fill="#176b37" fillRule="evenodd"/>
      <path id="Path_386" data-name="Path 386" d="M591.531,1400.48a16.4,16.4,0,0,1,1.94,6.9c-.675.115-.625-1.147-1.29-1.314-.024,4.187.48,9.293.807,13.8a27.169,27.169,0,0,1,.163,4.766c-.244,2.293-1.448,5.6-3.484,5.831a5.014,5.014,0,0,1-2.918-.66c-1.228-.751-1.438-2.308-2.025-3.523-1.122,1.041-1.645,3.655-3.647,3.855-1.472.145-2.412-.9-2.759-2.305-1.388.462-1.57,2.229-3.092,2.633a3.334,3.334,0,0,1-4.374-3.447c-2.671,1.083-6.352,3.08-9.57,1.719a5.67,5.67,0,0,1-3.076-4.682c-.241-.077-.311.14-.411.253-1.69,1.731-3.289,6.032-7.055,4.759a6.319,6.319,0,0,1-1.547-.9c-.416-.353-1.108-1.6-1.695-1.727-.856-.189-1.8.8-2.517,1.068-1.114.405-2.638.616-4.137.981-3.749.916-9.366,1.884-13.466.826a12.162,12.162,0,0,1-4.7-2.3,4.076,4.076,0,0,1-1.215-1.811c-.1-.624.031-1.548,0-2.3a9.49,9.49,0,0,1,1.049-5.09c.4-.884.713-1.76,1.547-2.063-.349,1.889-1.871,2.8-1.623,5.1a6.058,6.058,0,0,0,1.384,2.959c4.4,4.843,17.138,2.178,22.541.242a10.229,10.229,0,0,1,.327-7.721c.452-1.017,1.335-2.754,2.591-2.708,1.438.049,3.3,2.938,3.489,4.433a7.574,7.574,0,0,1,0,1.4,9.31,9.31,0,0,1-3.089,5.5c.664.884,2.3,1.051,3.569.912,3.37-.385,3.649-4.4,6.17-5.512-.094,1.081-.613,1.827-.329,2.879.4,1.455,2.653,2.449,4.463,2.633,3.678.356,6.923-1.345,9.17-2.141.185.786-.729,1.115-.735,1.811-.01,1.6,2.933,2.244,4.535,1.553,1.71-.728,2.263-3.214,3.74-3.608.133.862-.886,1.044-.895,1.884-.006,1.283,1.739,1.9,3.166,1.484,1.75-.521,2.176-3.244,3.569-3.782.047.6-.59.858-.578,1.4.055,1.593,4.148,3.681,5.844,2.547.426-3.457-.145-7.216-.4-11.014-.267-3.837-.1-7.775-.5-11.251a6.789,6.789,0,0,1-.237-1.394c.068-1.2.942-1.874,1.3-2.873m-41.607,21.685c.417-.294,1.383-.933,1.461-1.316.13-.632-.725-2.262-1.3-2.955a2.773,2.773,0,0,0-2.02-1.071c-1.676.216-1.573,2.752-1.056,4.272a4.554,4.554,0,0,0,1.134,1.973,11.738,11.738,0,0,0,1.784-.9" transform="translate(-441.17 -1393.251)" fill="#176b37" fillRule="evenodd"/>
      <path id="Path_387" data-name="Path 387" d="M347.965,1428.311c-.083-.781-.711-1.283-.973-1.967-1.106-2.951.164-7,2.107-8.543,2.528-1.992,6.972.256,9.978-1.235,1.362-.672,1.939-2.07,2.52-3.614a6.735,6.735,0,0,1-.734,3.282,5.855,5.855,0,0,1-5.274,3.787c-2.817.1-6.136-1.21-7.626,1.3a4.627,4.627,0,0,0,.329,2.227,10.375,10.375,0,0,0,3.333,3.946c2.089,1.363,4.722.625,6.962-.411,2.058-.95,3.823-1.827,5.605-2.8-1.235,3.629-3.754,4.576-7.138,5.835-2.42.9-6.489,2.521-9.9,1.477-4.382-1.339-4.242-8-4.708-13.47-.208-2.523-.5-4.94-.729-7.149a21.709,21.709,0,0,0-.485-3.45c-.514-1.967-.922-3.489-.08-5.345a.434.434,0,0,1,.242-.244c.065-.018.08.039.086.078,1.591,4.638,1.711,11.515,2.357,17.332.446,4.169.625,7.948,4.124,8.958" transform="translate(-289.822 -1394.474)" fill="#176b37" fillRule="evenodd"/>
      <path id="Path_388" data-name="Path 388" d="M1001.974,1409.07a16.49,16.49,0,0,1,1.96,6.322c-.73-.011-.691-.789-1.226-.989-.288,3.974.317,8.283.571,12.242.255,3.975.646,8.773-1.219,11.333.02-6.137-.535-12.522-.813-18.641-.094-2.117.091-4.288-.162-6.243-.052-.358-.324-.668-.324-1.07.011-1.036.952-1.991,1.214-2.953" transform="translate(-842.536 -1400.444)" fill="#176b37" fillRule="evenodd"/>
      <path id="Path_389" data-name="Path 389" d="M663.045,1426.71a9.334,9.334,0,0,1,2.843,1.973,5.341,5.341,0,0,1-1.381,2.794c-.938-.611-1.893-1.2-2.757-1.893a14.3,14.3,0,0,1,1.295-2.875" transform="translate(-558.672 -1415.215)" fill="#176b37" fillRule="evenodd"/>
      <path id="Path_390" data-name="Path 390" d="M393.128,1440.418c-.514-1.01-1.531-1.508-2.108-2.468a17.755,17.755,0,0,1,1.7-2.62c.7.865,2.172,1.418,2.035,2.789-.109.928-1.022,1.671-1.632,2.3" transform="translate(-331.98 -1422.433)" fill="#176b37" fillRule="evenodd"/>
      <path id="Path_391" data-name="Path 391" d="M875.218,1441.85c.828,1.1,1.474,3.752.244,4.842-.53.121-1.471.2-1.781-.16-.311.244-.47.619-.818.824-1.965.348-1.844-1.129-2.023-2.875-.073-.675-.356-1.362.081-1.643.885.537.013,2.747.891,3.37a1.12,1.12,0,0,0,1.544-.408c-.036-1.177-.794-2.549-.164-3.619.93.945.021,3.756,2.111,3.529.524-1.2-1.187-2.806-.084-3.86" transform="translate(-733.616 -1427.892)" fill="#176b37" fillRule="evenodd"/>
      <path id="Path_392" data-name="Path 392" d="M813.173,1452.445c.14-.028.154.064.162.159-.188,1.423-2.82,3.771-1.774,6.087.46,1.046,2.207,1.24,2.1-.576.755,1.425-.807,3.644-2.271,2.3-1.955-1.81.982-6.773,1.788-7.971" transform="translate(-683.414 -1436.76)" fill="#176b37" fillRule="evenodd"/>
      <path id="Path_393" data-name="Path 393" d="M59.73,1572.075c.438.7,2.116,1.412,2.014,2.715-.02.394-.511.862-.8,1.232-.184.235-.673,1.059-.893,1.067-.514.03-1.285-1.863-1.952-1.89-.763.592-1.217,2.033-2.346,1.81-.834-.163-1.651-2.113-2.271-2.629a8.383,8.383,0,0,1,1.622-2.71c.769.472,1.309,1.724,2.03,2.3,1.405,1.12,1.708-1.007,2.6-1.892" transform="translate(-49.346 -1536.595)" fill="#176b37" fillRule="evenodd"/>
      <path id="Path_394" data-name="Path 394" d="M689.576,1583.49c.792-.66,1.2-1.708,2.1-2.22a11.232,11.232,0,0,1,2.443,2.3,7.221,7.221,0,0,1-1.954,2.379c-.883-.614-1.513-1.479-2.422-2.058-.909.435-1.22,1.96-2.2,1.981-.951.015-1.5-1.531-2.349-1.981.223-1.191,1.1-1.709,1.614-2.619a21.509,21.509,0,0,1,2.762,2.219" transform="translate(-578.307 -1544.634)" fill="#176b37" fillRule="evenodd"/>
      <path id="Path_395" data-name="Path 395" d="M228.932,1593.921a2.276,2.276,0,0,1-.73,1.558c-.2.265-.724,1.142-1.056,1.152s-.966-.872-1.213-1.069c-.551-.423-.979-.53-1.379-.9a17.769,17.769,0,0,1-2.113,2.3,17.917,17.917,0,0,1-2.43-2.3,14.915,14.915,0,0,1,1.7-2.629c1.059.553,1.638,1.574,2.606,2.225.955-.517,1.183-1.758,2.022-2.386,1.108.437,1.71,1.384,2.6,2.051" transform="translate(-188.787 -1553.508)" fill="#176b37" fillRule="evenodd"/>
      <path id="Path_396" data-name="Path 396" d="M735.843,1387.087c1.656-.369,4.633-.906,6.333-.167a3.242,3.242,0,0,1-1.067,2.551,9.635,9.635,0,0,1-5.983,3.281c.473-.837,1.519-1.09,2.347-1.559a22.935,22.935,0,0,0,2.344-1.561,13.871,13.871,0,0,0-5.267.493,9.587,9.587,0,0,1,1.293-3.037" transform="translate(-619.629 -1381.588)" fill="#176b37" fillRule="evenodd"/>
      <path id="Path_397" data-name="Path 397" d="M540.673,1639.312c.059-.011.07.041.071.082a2.491,2.491,0,0,0-1.249,3.17c2.146-.984,7.862-2.907,9.692-.082.532,3.61-5.423,3.883-7.819,2.531-.623-.358-1.262-1.406-1.557-1.428-.169-.012-1.177,1.042-1.329,1.19a10.708,10.708,0,0,0-2.58,4.823c-.186,1.7.4,3.133,1.8,3.247a4.6,4.6,0,0,0,3.517-1.661c1.1-1.259.994-3.673,3.746-3.007-.106,1.293-1.012,1.921-1.477,2.769a19.8,19.8,0,0,1-1.329,2.453c-1.63,2.193-4.356,4.637-8.366,4.348-1.43-.1-3.3-.857-3.434-2.609-.054-.849.224-1.807.865-2.059a1.184,1.184,0,0,1,1.718,1.19c-.125.994-1.274.609-.854,2.06.276.981,1.654,1.287,2.877,1.183,3.006-.254,5.073-4.174,6.253-6.09-1.529,1.832-7.1,3.261-7.577-.718-.512-4.171,3.19-6.393,5.622-7.979a2.6,2.6,0,0,1,1.412-3.413m7.1,3.806a1.458,1.458,0,0,0-1.41-1.823c-2.778-.408-4.948,1.2-6.4,2.212,1.186,2.355,7.354,2.516,7.806-.389" transform="translate(-448.646 -1593.232)" fill="#176b37" fillRule="evenodd"/>
      <path id="Path_398" data-name="Path 398" d="M45.766,1664.289c3.533-.691,4.774-3.706,6.947-5.768-1.157,1.767-3.283,4.587-5.461,5.768-1.527.823-3.642.649-3.839-1.343-.2-2.235.95-3.96,1.492-5.459-.924.213-2.061-.277-2.977,0-.535.166-1.446,1.486-2.1,2.219-1.856,2.056-4.781,5.072-8.522,4.91-1.584-.077-3.353-.853-3.2-2.854.112-1.469,1.622-2.1,2.5-.949.166,1.122-.441,1.458-1.248,1.585a2.129,2.129,0,0,0,2.261,1.975c2.637.138,4.8-1.694,6.4-3.166a60.345,60.345,0,0,0,4.524-4.983c2.98-3.366,6.718-6.839,11.024-8.308.626-.219-.172.63-.316.791-2.8,3.3-5.318,6.41-7.026,10.606-.548,1.332-1.523,3.507-.467,4.977m5.623-15.105c-3.878,1.9-6.609,4.96-9.295,8.07h2.97a33.876,33.876,0,0,1,6.324-8.07" transform="translate(-28.097 -1600.406)" fill="#176b37" fillRule="evenodd"/>
      <path id="Path_399" data-name="Path 399" d="M185.222,1652.96c-2.338,3.851-4.584,7.536-6.961,11.393-.73,1.2-1.952,2.5-1.713,4.189a3.194,3.194,0,0,0,2.581-1.025,20.814,20.814,0,0,0,2.183-2.3,13.871,13.871,0,0,1,2.108-2.372c-1.527,1.76-3.387,4.927-5.783,5.934-.769.318-2.4.42-2.817-.242-.823-1.332.8-3.422,1.332-4.348,2.211-3.814,4.426-7.423,6.643-11.076.75-.109,1.617-.1,2.425-.156" transform="translate(-150.758 -1604.662)" fill="#176b37" fillRule="evenodd"/>
      <path id="Path_400" data-name="Path 400" d="M723.374,1652.96c-2.258,3.832-4.771,7.606-7.108,11.473-.719,1.189-1.926,2.611-1.484,4.193,1.773-.195,2.853-1.423,3.821-2.457a32.62,32.62,0,0,1,2.972-3.319,30.624,30.624,0,0,1-2.8,3.4c-1.033,1.03-2.076,2.326-3.442,2.689-1.887.5-2.928-.465-2.344-2.219.755-2.271,2.511-4.559,3.906-6.881,1.425-2.373,2.742-4.722,4.052-6.725.756-.111,1.625-.1,2.432-.158" transform="translate(-601.436 -1604.662)" fill="#176b37" fillRule="evenodd"/>
      <path id="Path_401" data-name="Path 401" d="M772.8,1652.96c-2.263,3.835-4.783,7.606-7.12,11.473-.713,1.189-1.933,2.611-1.481,4.193,1.776-.18,2.85-1.423,3.825-2.457a32.822,32.822,0,0,1,2.972-3.319,28.578,28.578,0,0,1-2.817,3.4c-1.015,1.03-2.058,2.326-3.432,2.689-1.887.5-2.941-.465-2.348-2.219.763-2.238,2.5-4.494,3.907-6.881,1.427-2.426,2.821-4.779,4.07-6.725.743-.111,1.607-.1,2.424-.158" transform="translate(-642.808 -1604.662)" fill="#176b37" fillRule="evenodd"/>
      <path id="Path_402" data-name="Path 402" d="M366.8,1656.769c.412-.942.781-3.027-.394-3.248a2.5,2.5,0,0,0-1.794.792c-1.867,1.584-3.484,4.785-4.615,6.8,1.853.1,4.114-.21,5.713.154-.734.425-1.828.244-2.892.244h-3.05c-1.794,2.787-3.24,6.18-5.47,9.25-2.029,2.8-4.911,5.429-9.293,5.379-1.68-.018-3.7-.662-4.137-2.058-.839-2.622,1.689-4.006,4.137-3.556a2.946,2.946,0,0,0-2.339,3.4c.223,1.386,1.513,2.129,3.432,1.9,3.094-.366,5.29-3.958,6.726-6.172,1.827-2.853,3.237-5.626,4.678-8.142-.631-.1-1.653.2-2.032-.165.359-.48,1.54-.125,2.266-.234,1.838-2.552,4.2-7.382,8.2-7.837,1.394-.152,2.889.323,3.131,1.35.366,1.573-.805,2.209-2.269,2.141" transform="translate(-289.846 -1604.905)" fill="#176b37" fillRule="evenodd"/>
      <path id="Path_403" data-name="Path 403" d="M411.17,1670.642c1.056-.262,1.508.285,1.405,1.185-.15,1.222-2.142,1.4-2.344.158a1.046,1.046,0,0,1,.939-1.344" transform="translate(-348.046 -1619.412)" fill="#176b37" fillRule="evenodd"/>
      <path id="Path_404" data-name="Path 404" d="M299.509,1700.329c.327-.135.356-.582.628-.791.693-.119,1.5-.106,2.263-.155-.955,1.874-2.406,3.536-3.434,5.539-.306.59-.825,1.484-.317,2.214,1.861-.093,2.832-1.446,3.829-2.456,1.043-1.054,1.967-2.233,2.972-3.319-1.29,1.7-4.046,5.959-6.8,6.326-1.282.172-2.274-.408-1.947-1.738-1.205,1.643-5.775,3.2-5.467-1.027.207-2.91,3.98-6.366,6.8-5.934a1.977,1.977,0,0,1,1.479,1.339m-2.57-.867c-1.4.612-3.151,3.246-3.52,5.3-.4,2.177,1.114,2.662,2.424,1.584a11.418,11.418,0,0,0,2.961-5.063c.267-1.372-.159-2.033-1.087-1.976a2.4,2.4,0,0,0-.777.153" transform="translate(-248.413 -1643.173)" fill="#176b37" fillRule="evenodd"/>
      <path id="Path_405" data-name="Path 405" d="M637.537,1700.31c.35-.127.387-.557.625-.789a22.45,22.45,0,0,1,2.266-.154c-.926,1.885-2.424,3.536-3.437,5.539-.3.6-.776,1.49-.311,2.216,1.835-.138,2.925-1.407,3.906-2.458.509-.53,1.013-1.1,1.49-1.66a6.757,6.757,0,0,1,1.472-1.659c-1.376,1.6-3.985,5.958-6.868,6.326-1.219.156-2.2-.294-1.952-1.737-1.121,1.64-5.677,3.144-5.472-.871.145-2.737,3.685-6.558,6.8-6.092a1.828,1.828,0,0,1,1.485,1.34m-6.09,4.517c-.091.849,0,1.552.469,1.894,1.4,1.008,3.183-1.791,3.675-2.609s2.656-4.993.148-4.823c-2.024.125-4.094,3.644-4.291,5.539" transform="translate(-531.457 -1643.154)" fill="#176b37" fillRule="evenodd"/>
      <path id="Path_406" data-name="Path 406" d="M815.763,1704c-.515,4.945,4.4,2.657,6.32.868,1.295-1.2,2.23-2.774,3.206-3.4-2.064,2.326-3.911,5.934-8.359,6.326-2.617.236-4.216-1.742-3.123-4.349a8.045,8.045,0,0,1,5.941-4.349c1.2-.1,2.389.272,2.5,1.264.151,1.417-1.532,2.237-2.5,2.612a24.792,24.792,0,0,1-3.984,1.03m3.592-4.588c-1.6.491-2.972,2.878-3.517,4.344,2.2-.56,4.589-1.7,4.532-4.191a1.129,1.129,0,0,0-1.015-.153" transform="translate(-685.702 -1643.276)" fill="#176b37" fillRule="evenodd"/>
      <path id="Path_407" data-name="Path 407" d="M877.07,1703.476a22.129,22.129,0,0,1,3.673-3.4,3.517,3.517,0,0,1,2.973-1.03c-.412.914-1.448,1.827-1.095,3.089.4,1.472,2.7.043,3.042-.715-.288,1.558-4.225,2.894-5.077.715a3.645,3.645,0,0,1,.229-1.825c-2.587,1.7-4.3,4.28-5.855,7.045H872.78c1.483-2.683,3.1-5.243,4.605-7.912.833-.023,1.593-.124,2.505-.077-.883,1.425-1.929,2.684-2.821,4.109" transform="translate(-735.374 -1643.229)" fill="#176b37" fillRule="evenodd"/>
      <path id="Path_408" data-name="Path 408" d="M912.587,1701.065c-.672,1.183-1.49,2.4-2.26,3.636-.7,1.122-1.942,2.461-1.4,4.029,1.949-.272,3.118-1.8,4.128-3.076a22.117,22.117,0,0,0,2.652-4.511c.743-.018,1.392-.128,2.2-.076-1.512,2.792-3.026,5.583-4.605,8.306,2.99-.965,5.007-3.178,6.793-5.462.223-.285.4-.708.781-.789a14.923,14.923,0,0,1-7.733,6.564c-1.871,2.89-4.815,6.486-9.77,6.486-2.061,0-5.067-.979-4.132-3.875.408-1.279,2.508-2.085,4.218-1.42-3.317-.256-2.9,4.506-.633,4.979a5.343,5.343,0,0,0,1.958-.083c4.192-1.1,6.172-6.549,8.2-9.566-.99.746-2.233,2.588-3.826,3.006-1.327.356-2.4-.086-2.261-1.579.2-2.342,2.726-4.74,3.356-6.489.8-.017,1.48-.135,2.338-.08" transform="translate(-757.379 -1644.929)" fill="#176b37" fillRule="evenodd"/>
      <path id="Path_409" data-name="Path 409" d="M380.44,1701.589c-.63,1.256-1.513,2.424-2.263,3.636-.712,1.145-1.814,2.414-1.49,4.034,1.7-.081,2.713-1.471,3.753-2.526.542-.543,1.07-1.1,1.557-1.663.469-.532.865-1.24,1.49-1.5a21.077,21.077,0,0,1-2.97,3.484c-1.049,1.059-2.2,2.458-3.748,2.686-1.31.2-2.2-.376-2.027-1.822.255-2.251,2.843-4.623,3.512-6.25.818.065,1.4-.109,2.186-.076" transform="translate(-318.333 -1645.377)" fill="#176b37" fillRule="evenodd"/>
      <path id="Path_410" data-name="Path 410" d="M225.4,1702.364c.594-1.2.62-3.4-1.095-2.927-.669.184-1.01.951-.852,1.893s1.241,1.6,1.636,2.772a2.636,2.636,0,0,1-1.327,3.242c3.322-.872,4.807-3.624,6.884-5.775-1.876,3.107-5.166,6.661-9.539,6.25a3,3,0,0,1-2.507-1.5c-.392-1.177.221-2.677,1.03-2.931,1.928-.6,2.12,2.363.151,1.822-1.1,3.079,3.4,2.854,3.673.631.2-1.692-1.573-2.287-1.8-3.8-.459-3.058,4.385-3.918,5.781-1.656.231,1.552-.706,2.25-2.035,1.979" transform="translate(-187.509 -1643.302)" fill="#176b37" fillRule="evenodd"/>
    </g>
  </g>
</svg>
